<?xml version="1.0" standalone="no"?>
<!DOCTYPE svg PUBLIC "-//W3C//DTD SVG 20010904//EN"
 "http://www.w3.org/TR/2001/REC-SVG-20010904/DTD/svg10.dtd">
<svg version="1.0" xmlns="http://www.w3.org/2000/svg"
 width="1920.000000pt" height="1920.000000pt" viewBox="0 0 1920.000000 1920.000000"
 preserveAspectRatio="xMidYMid meet">
<metadata>
Created by potrace 1.14, written by Peter Selinger 2001-2017
</metadata>
<g transform="translate(0.000000,1920.000000) scale(0.100000,-0.100000)"
fill="#000000" stroke="none">
<path d="M9506 15862 c-4 -3 -28 -7 -54 -8 -109 -3 -113 -4 -106 -16 5 -7 3
-8 -7 -3 -18 12 -69 7 -88 -8 -12 -10 -13 -9 -7 2 7 10 3 11 -15 5 -24 -7 -50
-12 -82 -13 -12 -1 -16 -5 -11 -13 5 -9 2 -9 -9 1 -9 7 -17 9 -17 3 0 -5 -16
-9 -35 -7 -21 1 -32 -2 -28 -8 4 -6 -2 -8 -15 -5 -12 4 -22 2 -22 -2 0 -8 -96
-26 -112 -22 -5 1 -8 -2 -8 -8 0 -5 -3 -9 -7 -9 -23 4 -43 -2 -38 -11 4 -7 -5
-9 -25 -5 -20 4 -29 2 -25 -5 3 -6 -4 -9 -17 -9 -21 1 -87 -20 -98 -31 -3 -3
-9 -5 -15 -6 -26 -3 -55 -17 -55 -28 0 -6 -5 -4 -10 4 -5 8 -10 10 -10 4 0
-11 -30 -26 -58 -28 -7 -1 -17 -8 -22 -16 -5 -8 -10 -11 -10 -7 0 5 -16 0 -36
-12 -19 -12 -42 -21 -50 -21 -8 0 -14 -4 -14 -10 0 -5 -6 -7 -13 -4 -7 2 -26
-6 -42 -20 -16 -14 -31 -24 -34 -24 -3 1 -19 -5 -36 -12 -16 -7 -34 -12 -38
-11 -5 1 -6 -3 -2 -9 3 -5 1 -10 -4 -10 -20 0 -26 -3 -37 -18 -6 -8 -16 -12
-22 -8 -7 4 -12 1 -12 -9 0 -9 -5 -13 -10 -10 -6 3 -13 -1 -16 -9 -3 -9 -10
-13 -15 -10 -5 3 -12 -2 -15 -10 -3 -9 -10 -14 -14 -11 -5 3 -11 1 -15 -5 -4
-6 -12 -7 -18 -4 -7 4 -9 4 -5 -1 8 -9 -9 -28 -34 -38 -10 -3 -18 -11 -18 -17
0 -6 -5 -8 -10 -5 -6 3 -13 -1 -16 -9 -3 -9 -10 -14 -15 -11 -4 3 -13 -4 -19
-15 -6 -11 -15 -18 -20 -15 -5 3 -11 -4 -15 -14 -4 -13 -11 -18 -22 -14 -13 5
-15 2 -10 -11 4 -10 3 -15 -3 -11 -6 3 -13 -1 -16 -9 -3 -9 -13 -16 -21 -16
-8 0 -11 -5 -7 -12 5 -8 2 -9 -9 -5 -9 3 -16 3 -16 -1 1 -4 1 -14 0 -22 -1
-13 -2 -13 -11 0 -7 11 -10 11 -10 2 0 -15 -48 -62 -63 -62 -6 0 -8 -3 -5 -6
7 -7 -83 -100 -93 -97 -5 2 -5 -5 -2 -14 4 -11 3 -14 -5 -9 -11 7 -17 -6 -13
-27 1 -5 -3 -6 -8 -3 -11 7 -33 -18 -24 -27 3 -4 -1 -7 -10 -7 -9 0 -17 -7
-17 -16 0 -8 -4 -12 -10 -9 -9 6 -14 -8 -11 -28 1 -5 -3 -6 -8 -2 -6 3 -15 -5
-22 -17 -17 -31 -35 -48 -43 -40 -4 3 -4 -1 -1 -9 3 -9 -5 -26 -19 -42 -13
-14 -21 -28 -18 -31 3 -3 0 -6 -6 -6 -7 0 -12 -7 -12 -15 0 -9 -7 -18 -15 -21
-8 -4 -15 -12 -15 -20 0 -7 -10 -23 -22 -35 -13 -12 -16 -19 -8 -15 8 4 7 1
-4 -8 -10 -8 -15 -19 -12 -24 3 -6 -1 -13 -10 -16 -8 -3 -12 -10 -9 -16 3 -5
1 -10 -4 -10 -6 0 -11 -7 -11 -16 0 -8 -4 -13 -9 -9 -6 3 -8 -4 -6 -16 3 -15
0 -19 -10 -15 -8 3 -14 2 -14 -2 3 -21 -2 -43 -9 -38 -5 3 -8 -5 -8 -17 1 -12
-4 -21 -11 -20 -7 2 -10 -3 -7 -11 3 -7 -1 -20 -9 -27 -7 -8 -12 -20 -9 -27 2
-6 -1 -12 -8 -12 -6 0 -8 -4 -5 -10 3 -5 0 -10 -7 -10 -11 0 -10 -2 0 -9 11
-7 10 -9 -3 -15 -9 -3 -13 -10 -10 -16 3 -5 1 -10 -4 -10 -6 0 -10 -3 -9 -7 2
-12 -14 -47 -26 -55 -8 -5 -7 -8 1 -8 9 0 6 -12 -8 -36 -11 -20 -17 -44 -14
-55 5 -14 2 -17 -8 -13 -10 4 -13 -3 -12 -26 1 -18 -3 -30 -11 -30 -7 0 -11
-10 -9 -25 1 -14 -3 -25 -9 -25 -7 0 -11 -15 -11 -35 1 -19 -3 -35 -8 -35 -5
0 -7 -7 -4 -15 4 -8 1 -17 -4 -21 -6 -3 -9 -15 -6 -25 3 -11 1 -17 -3 -14 -5
3 -9 -3 -10 -12 -1 -44 -5 -63 -11 -63 -4 0 -6 -16 -5 -35 1 -21 -3 -34 -9
-31 -6 2 -10 -17 -9 -48 1 -28 -4 -57 -10 -65 -9 -12 -8 -13 2 -7 12 7 12 4 2
-14 -6 -12 -9 -28 -6 -35 2 -7 2 -16 -2 -20 -10 -10 -8 -39 3 -47 6 -5 5 -8
-2 -8 -7 0 -10 -7 -7 -15 4 -9 1 -15 -7 -15 -10 0 -10 -3 -1 -12 15 -15 16
-32 2 -23 -13 8 -8 -18 5 -27 6 -5 6 -8 -2 -8 -16 0 -15 -150 1 -150 6 0 4 -5
-4 -10 -8 -5 -10 -10 -5 -10 6 0 10 -21 10 -47 -1 -27 2 -56 7 -65 5 -10 3
-18 -3 -20 -8 -3 -6 -10 5 -21 10 -9 13 -17 8 -17 -5 0 -9 -7 -9 -15 0 -8 3
-15 7 -15 3 0 6 -9 6 -20 0 -11 -5 -20 -11 -20 -5 0 -3 -4 5 -10 8 -5 11 -12
8 -16 -4 -4 -2 -16 4 -28 6 -11 13 -35 14 -54 2 -18 7 -38 11 -45 10 -16 10
-38 0 -61 -6 -12 -5 -16 1 -12 5 3 12 -1 16 -9 3 -8 0 -15 -7 -15 -7 0 -4 -5
5 -11 10 -5 15 -16 11 -25 -3 -8 3 -24 12 -34 10 -11 13 -20 7 -20 -6 0 -5
-11 5 -30 8 -17 12 -38 9 -46 -3 -8 -2 -13 3 -10 12 8 22 -20 15 -39 -4 -8 1
-17 10 -21 9 -3 13 -11 9 -18 -11 -17 -12 -37 -2 -30 5 3 6 11 3 17 -4 7 -3 9
1 4 13 -12 16 -47 4 -47 -5 0 -8 -4 -5 -9 12 -19 -5 -38 -30 -33 -13 2 -24 8
-24 13 0 5 -7 9 -15 9 -8 0 -15 5 -15 10 0 6 -9 10 -20 10 -11 0 -20 5 -20 11
0 5 -4 7 -10 4 -5 -3 -10 -1 -10 5 0 6 -4 8 -10 5 -5 -3 -10 -1 -10 6 0 7 -3
10 -6 6 -4 -3 -20 1 -36 9 -17 9 -27 11 -24 5 4 -7 1 -8 -8 -5 -9 3 -13 10
-10 15 3 5 -2 6 -10 3 -9 -3 -16 -2 -16 4 0 6 -8 9 -17 7 -10 -1 -22 1 -28 5
-5 5 -26 7 -47 6 -20 0 -34 3 -30 8 3 5 -2 7 -11 3 -10 -4 -17 -1 -17 6 0 8
-3 8 -9 -2 -7 -11 -9 -11 -14 0 -4 11 -6 11 -6 1 -1 -7 -6 -10 -12 -6 -17 10
-243 5 -279 -7 -3 -1 -13 0 -24 1 -12 1 -16 -2 -11 -11 5 -8 4 -10 -3 -5 -13
8 -132 -24 -132 -36 0 -4 -9 -5 -20 -3 -11 2 -20 0 -20 -6 0 -5 -7 -9 -15 -9
-8 0 -15 -4 -15 -10 0 -5 -3 -9 -7 -8 -5 1 -18 -3 -30 -10 -13 -7 -23 -10 -23
-7 0 4 -7 -1 -16 -9 -8 -9 -20 -13 -26 -10 -6 4 -8 2 -5 -3 4 -6 -1 -17 -10
-24 -13 -11 -15 -11 -9 -1 7 11 4 11 -12 1 -12 -7 -18 -17 -16 -21 3 -4 0 -8
-6 -8 -6 0 -28 -17 -49 -37 -20 -21 -41 -39 -46 -39 -6 -1 -15 -11 -21 -23 -6
-12 -15 -25 -19 -29 -5 -4 -5 -1 0 7 5 9 4 12 -3 7 -7 -4 -12 -14 -12 -22 0
-8 -7 -14 -16 -14 -10 0 -14 -6 -11 -14 3 -8 -1 -17 -9 -20 -8 -3 -22 -21 -31
-41 -9 -19 -20 -35 -25 -35 -4 0 -8 -7 -8 -15 0 -8 -5 -15 -11 -15 -5 0 -7 -4
-4 -10 3 -5 1 -10 -5 -10 -6 0 -8 -4 -5 -10 3 -5 1 -10 -5 -10 -6 0 -9 -4 -6
-9 3 -5 -1 -14 -9 -21 -8 -7 -12 -16 -9 -21 3 -5 0 -9 -5 -9 -6 0 -11 -12 -11
-26 0 -17 -4 -23 -12 -18 -8 5 -9 2 -5 -9 3 -10 2 -17 -4 -17 -6 0 -7 -4 -4
-10 3 -5 -2 -21 -11 -35 -9 -14 -13 -25 -9 -25 4 0 1 -8 -6 -17 -12 -15 -12
-16 1 -8 12 7 13 6 3 -7 -7 -8 -10 -18 -6 -21 3 -4 1 -7 -6 -7 -7 0 -11 -6 -8
-14 3 -8 3 -17 -1 -21 -3 -3 -8 -25 -9 -47 -1 -23 -8 -45 -15 -50 -9 -5 -10
-8 -1 -8 8 0 9 -9 4 -27 -4 -16 -7 -53 -7 -85 1 -31 -2 -54 -6 -52 -4 2 -9 0
-13 -6 -3 -5 -2 -10 3 -10 10 0 10 0 16 -100 3 -41 6 -77 7 -80 1 -3 1 -8 0
-12 0 -5 4 -8 9 -8 7 0 7 -6 1 -18 -7 -13 -6 -23 1 -30 7 -7 8 -12 3 -12 -6 0
-4 -4 2 -8 7 -4 14 -17 16 -27 8 -44 21 -80 29 -86 5 -3 10 -19 11 -36 1 -17
6 -29 11 -25 5 3 7 -2 3 -11 -3 -9 -1 -19 5 -23 7 -5 8 -2 3 7 -5 8 -4 11 0 6
5 -4 10 -18 12 -30 2 -12 8 -24 13 -25 6 -2 8 -7 5 -12 -3 -4 2 -13 10 -20 8
-7 15 -19 15 -27 0 -8 7 -21 15 -30 8 -8 13 -19 10 -24 -4 -5 1 -9 10 -9 9 0
15 -6 12 -12 -2 -7 5 -18 17 -25 13 -7 15 -12 7 -13 -9 0 -6 -7 9 -20 13 -11
20 -20 16 -20 -4 0 4 -11 18 -23 14 -13 23 -27 19 -31 -4 -4 2 -9 14 -12 15
-4 20 -11 16 -22 -5 -11 -2 -14 10 -9 12 4 15 1 12 -14 -4 -17 -2 -19 11 -8
12 9 13 9 9 -2 -3 -8 5 -25 17 -39 13 -14 19 -20 14 -13 -5 8 -7 15 -5 18 3 2
13 -9 24 -26 11 -16 26 -29 33 -29 6 0 12 -7 12 -15 0 -14 13 -20 35 -15 6 1
7 -2 3 -6 -11 -10 12 -35 25 -27 6 4 8 0 4 -10 -4 -11 -1 -15 14 -12 11 2 19
-2 19 -10 0 -15 35 -30 50 -20 5 3 7 0 4 -9 -3 -9 3 -19 18 -27 22 -12 22 -11
8 7 -14 18 -14 18 3 5 10 -8 15 -21 12 -29 -4 -12 -3 -12 9 -3 12 10 16 8 21
-10 5 -15 10 -18 15 -9 5 8 9 7 14 -5 4 -10 12 -15 22 -11 8 3 12 2 9 -4 -3
-6 1 -10 9 -10 9 0 16 -5 16 -11 0 -5 4 -8 9 -5 4 3 16 -1 26 -8 22 -16 29
-47 9 -39 -8 3 -14 1 -14 -4 0 -4 -9 -14 -21 -21 -14 -9 -19 -10 -14 -2 6 9 2
9 -14 1 -12 -7 -25 -9 -30 -7 -5 3 -11 -1 -15 -9 -3 -8 -12 -12 -19 -9 -8 3
-22 -2 -31 -11 -12 -12 -16 -13 -16 -3 0 10 -2 10 -8 1 -10 -15 -61 -35 -73
-27 -5 3 -9 0 -9 -5 0 -6 -6 -10 -12 -8 -7 1 -12 -3 -11 -10 2 -7 -4 -10 -12
-7 -8 4 -15 1 -15 -6 0 -6 -4 -9 -9 -6 -4 3 -17 -1 -27 -9 -10 -8 -27 -15 -36
-15 -10 0 -18 -4 -18 -10 0 -5 -7 -10 -15 -10 -8 0 -15 -4 -15 -10 0 -5 -7 -7
-15 -4 -8 4 -15 1 -15 -5 0 -6 -3 -10 -7 -9 -16 4 -83 -24 -78 -32 3 -5 -4 -7
-17 -5 -12 3 -25 0 -29 -6 -6 -10 -27 -16 -57 -18 -7 -1 -11 -5 -7 -10 3 -6
-3 -10 -12 -11 -55 -2 -84 -8 -98 -20 -8 -7 -15 -9 -15 -4 0 5 -5 2 -10 -6 -7
-11 -10 -11 -10 -2 0 8 -5 10 -12 5 -7 -4 -22 -9 -33 -11 -30 -5 -50 -10 -50
-12 0 -1 -16 -3 -36 -4 -20 -2 -40 -5 -45 -9 -5 -3 -29 -8 -53 -12 -24 -3 -54
-10 -67 -15 -17 -7 -24 -6 -24 3 0 7 -3 8 -8 2 -4 -5 -16 -11 -27 -12 -18 -2
-44 -7 -85 -15 -8 -2 -19 -6 -25 -9 -5 -3 -30 -7 -54 -8 -24 -1 -52 -6 -62
-12 -10 -5 -22 -9 -26 -8 -4 1 -10 0 -13 -1 -11 -4 -47 -11 -85 -16 -22 -3
-44 -9 -50 -13 -5 -4 -22 -7 -37 -6 -16 0 -28 -2 -28 -5 0 -3 -8 -7 -17 -8
-34 -4 -52 -8 -59 -14 -3 -4 -13 -4 -22 -1 -8 4 -13 2 -10 -3 4 -5 -6 -10 -20
-11 -33 -3 -52 -8 -73 -17 -9 -4 -20 -6 -25 -4 -5 1 -19 -3 -32 -11 -13 -7
-28 -11 -35 -8 -6 2 -18 -2 -25 -9 -7 -7 -21 -11 -32 -9 -11 2 -20 -1 -20 -6
0 -5 -6 -9 -13 -7 -6 1 -23 -4 -35 -11 -13 -7 -26 -10 -29 -7 -3 3 -12 -2 -20
-12 -8 -9 -12 -11 -8 -4 3 6 1 12 -4 12 -6 0 -11 -5 -11 -11 0 -6 -7 -8 -16
-5 -10 4 -13 2 -8 -6 5 -8 2 -9 -9 -5 -10 3 -17 2 -17 -4 0 -6 -4 -8 -9 -4 -5
3 -12 1 -16 -5 -4 -6 -10 -8 -15 -5 -5 3 -14 0 -22 -7 -7 -7 -20 -14 -28 -16
-8 -2 -35 -13 -60 -25 -58 -27 -68 -31 -50 -18 21 15 7 14 -24 -2 -14 -8 -22
-18 -18 -22 4 -4 -3 -5 -16 -2 -18 4 -22 2 -18 -9 3 -8 2 -13 -3 -10 -11 7
-71 -13 -71 -24 0 -5 -14 -11 -30 -15 -17 -4 -30 -11 -30 -16 0 -6 -4 -7 -10
-4 -5 3 -10 1 -10 -4 0 -6 -7 -11 -15 -11 -8 0 -15 -4 -15 -10 0 -5 -7 -6 -17
-3 -11 4 -14 3 -9 -5 6 -11 -5 -16 -20 -9 -3 1 -10 -6 -15 -16 -6 -9 -14 -15
-20 -12 -5 4 -9 1 -9 -6 0 -7 -3 -10 -6 -7 -3 4 -14 -2 -25 -13 -11 -11 -24
-17 -29 -14 -6 4 -10 -1 -10 -10 0 -9 -4 -13 -10 -10 -5 3 -10 1 -10 -4 0 -6
-5 -11 -10 -11 -6 0 -20 -9 -32 -20 -12 -10 -26 -17 -31 -13 -6 3 -7 1 -4 -4
7 -10 -20 -28 -35 -25 -5 1 -8 -5 -8 -13 0 -8 -5 -15 -10 -15 -6 0 -38 -26
-70 -59 -33 -32 -60 -56 -60 -52 0 3 -5 -2 -11 -12 -6 -9 -15 -14 -21 -11 -7
4 -8 2 -4 -4 4 -7 2 -12 -4 -12 -6 0 -8 -4 -5 -10 3 -5 1 -10 -4 -10 -14 0
-91 -77 -91 -91 0 -5 -5 -7 -12 -3 -8 5 -9 2 -5 -10 6 -14 3 -17 -9 -12 -11 4
-15 2 -11 -7 3 -8 -3 -20 -13 -27 -11 -8 -17 -17 -14 -21 2 -4 -5 -10 -16 -14
-11 -4 -18 -10 -15 -15 3 -4 -2 -13 -10 -20 -8 -7 -12 -16 -9 -21 3 -5 -5 -9
-18 -10 -13 0 -17 -3 -10 -6 10 -4 7 -12 -10 -30 -13 -13 -22 -26 -20 -29 5
-10 1 -25 -6 -20 -4 2 -15 -9 -25 -25 -9 -17 -12 -27 -6 -23 6 3 5 -3 -3 -15
-7 -12 -16 -21 -20 -21 -5 0 -8 -9 -8 -21 0 -11 -4 -18 -8 -15 -4 2 -9 -5 -9
-17 -1 -12 -7 -23 -13 -25 -5 -2 -10 -12 -10 -23 0 -10 -4 -19 -10 -19 -5 0
-7 -7 -4 -15 4 -8 1 -15 -5 -15 -6 0 -11 -10 -11 -23 0 -13 -4 -27 -9 -32 -5
-6 -11 -21 -13 -35 -1 -14 -6 -28 -10 -31 -7 -5 -17 -48 -21 -91 -1 -10 -4
-18 -7 -18 -4 0 -6 -10 -5 -22 1 -13 0 -27 -4 -33 -3 -5 -7 -21 -9 -35 -6 -49
-8 -55 -15 -67 -5 -8 -3 -13 3 -13 6 0 8 -5 4 -12 -9 -15 -13 -208 -4 -208 6
0 8 -17 11 -95 1 -25 6 -48 11 -51 5 -3 4 -12 -3 -20 -9 -11 -8 -15 3 -19 10
-4 13 -15 10 -31 -2 -13 0 -24 5 -24 6 0 10 -14 11 -32 0 -17 7 -35 14 -39 10
-7 10 -9 -2 -9 -10 0 -11 -3 -4 -8 12 -8 29 -52 26 -66 -2 -4 2 -14 8 -20 5
-7 7 -16 3 -19 -3 -4 -1 -7 5 -7 6 0 9 -7 6 -15 -4 -9 1 -18 11 -21 13 -5 14
-9 3 -15 -10 -7 -10 -9 0 -9 6 0 12 -7 12 -15 0 -9 7 -27 16 -40 9 -13 12 -30
8 -36 -4 -7 -3 -9 4 -5 6 3 13 2 17 -4 3 -5 1 -10 -6 -10 -8 0 -7 -5 4 -12 9
-7 23 -29 32 -48 9 -19 25 -48 35 -65 11 -16 23 -38 26 -47 4 -10 10 -15 15
-12 5 3 6 -2 3 -10 -4 -9 1 -18 10 -22 9 -3 16 -15 16 -26 0 -12 4 -17 12 -12
6 4 8 3 4 -4 -3 -6 5 -22 19 -36 14 -14 25 -32 25 -41 0 -9 4 -14 8 -11 5 3
15 -6 22 -19 7 -14 17 -25 22 -25 4 0 8 -6 8 -14 0 -8 7 -17 16 -20 9 -4 14
-9 11 -12 -8 -8 18 -34 34 -34 7 0 10 -3 6 -6 -7 -8 59 -74 74 -74 7 0 10 -3
6 -6 -7 -7 46 -64 61 -64 6 0 14 -5 18 -12 5 -7 2 -8 -7 -3 -16 9 -8 2 36 -35
24 -20 27 -21 15 -4 -8 11 -3 7 11 -8 14 -15 30 -28 37 -28 6 0 14 -9 17 -20
3 -11 13 -20 22 -20 9 0 28 -13 43 -29 22 -22 31 -26 41 -17 9 8 10 8 5 -1 -8
-15 30 -37 46 -27 6 4 8 3 5 -3 -8 -13 32 -46 48 -39 9 3 12 0 8 -10 -3 -9 2
-14 16 -14 12 0 21 -4 21 -10 0 -5 7 -10 16 -10 8 0 12 -4 9 -10 -3 -6 1 -7 9
-4 9 3 16 1 16 -6 0 -6 5 -8 10 -5 5 3 10 -1 10 -9 0 -10 6 -13 15 -10 8 4 15
1 15 -5 0 -6 7 -11 15 -11 8 0 15 -5 15 -10 0 -6 3 -9 8 -9 19 3 33 -2 28 -10
-4 -5 5 -8 19 -7 13 2 22 -1 19 -6 -3 -5 3 -12 15 -15 12 -3 21 -8 21 -12 0
-4 10 -8 22 -8 13 -1 24 -7 26 -13 2 -5 8 -7 13 -4 6 3 19 -2 29 -11 10 -9 24
-14 29 -10 6 3 11 1 11 -5 0 -6 5 -8 10 -5 6 3 10 -1 10 -10 0 -9 5 -13 10
-10 6 4 18 1 27 -7 14 -11 15 -11 9 0 -7 11 -4 11 13 0 12 -7 21 -16 21 -20 0
-4 9 -5 20 -3 11 2 20 -1 20 -6 0 -6 5 -7 10 -4 6 3 10 0 10 -7 0 -9 3 -9 10
2 5 8 10 10 10 4 0 -6 11 -16 25 -22 19 -9 25 -9 25 0 0 7 7 2 16 -10 13 -19
18 -21 32 -10 12 10 14 10 8 1 -5 -9 2 -13 24 -13 21 0 29 -4 24 -12 -5 -8 -2
-9 9 -5 10 3 17 2 17 -3 0 -5 7 -7 16 -3 9 3 19 1 23 -5 4 -7 19 -13 34 -14
15 -1 27 -7 27 -12 0 -5 3 -6 7 -3 3 4 13 1 21 -6 13 -10 14 -9 7 3 -5 9 0 8
13 -4 17 -14 22 -16 22 -5 0 12 2 12 9 0 5 -8 14 -10 21 -6 9 5 11 4 6 -3 -6
-11 28 -18 58 -13 4 1 14 -3 22 -10 8 -6 21 -9 29 -5 8 3 15 1 15 -5 0 -6 7
-9 15 -5 8 3 15 1 15 -3 0 -5 10 -7 22 -3 11 3 19 1 16 -4 -4 -5 10 -10 30
-12 19 -1 41 -7 48 -13 7 -6 18 -8 23 -5 5 4 12 2 15 -3 4 -5 17 -8 31 -6 14
1 25 -1 25 -5 0 -5 14 -7 31 -6 16 1 32 -1 35 -6 3 -5 10 -6 15 -3 5 4 9 2 9
-2 0 -5 10 -10 23 -10 12 -1 40 -6 63 -11 22 -5 52 -8 66 -8 15 1 24 -3 21 -8
-4 -5 3 -7 15 -4 12 4 25 2 28 -3 3 -6 12 -5 22 3 13 11 14 11 7 -1 -6 -11 -3
-13 13 -9 12 4 22 3 22 -1 0 -4 17 -7 38 -7 20 0 36 -5 35 -10 -1 -5 25 -9 58
-8 32 0 59 -2 59 -6 0 -6 27 -10 78 -10 17 1 32 -3 32 -7 0 -5 26 -9 57 -11
31 -2 62 -7 68 -12 6 -5 17 -5 25 0 8 5 22 5 32 -1 10 -6 23 -7 28 -4 6 3 10
1 10 -4 0 -6 5 -11 11 -11 5 0 7 6 3 13 -6 9 -4 9 7 1 8 -6 21 -11 29 -12 44
-1 235 -19 235 -22 0 -1 17 -3 37 -5 20 -1 42 -6 49 -10 8 -6 10 -4 4 4 -5 10
-3 11 11 4 11 -6 45 -9 77 -9 31 1 57 -3 57 -8 0 -4 6 -3 14 3 9 8 22 8 37 2
13 -4 34 -5 47 0 12 5 22 5 22 1 0 -9 57 -11 443 -14 266 -3 310 -1 318 12 4
8 9 10 9 3 0 -12 17 -12 38 0 7 5 12 3 12 -3 0 -6 5 -8 11 -4 6 4 77 8 158 10
168 4 212 7 231 19 9 6 11 4 5 -4 -6 -10 -3 -11 11 -3 11 5 34 9 52 8 17 0 32
2 32 5 0 3 17 5 38 5 20 -1 60 2 87 7 66 11 68 11 84 21 11 7 12 6 6 -5 -7
-11 -6 -12 6 -2 9 7 31 13 50 14 19 2 38 5 43 7 5 3 30 7 55 9 25 1 57 7 71
12 14 6 41 9 60 9 26 -1 34 2 32 13 -3 11 -1 11 9 2 8 -8 18 -9 31 -2 13 7 22
6 33 -5 20 -20 19 -38 -5 -69 -11 -14 -20 -32 -20 -41 0 -9 -4 -16 -10 -16 -5
0 -10 -9 -10 -20 0 -11 -4 -20 -10 -20 -5 0 -10 -11 -10 -24 0 -14 -5 -28 -11
-32 -6 -3 -9 -17 -6 -30 2 -13 -1 -22 -7 -21 -6 1 -11 -10 -12 -24 -1 -14 -4
-31 -8 -37 -8 -14 -17 -50 -18 -72 0 -8 -5 -20 -9 -26 -5 -6 -7 -25 -5 -43 2
-17 -1 -34 -5 -37 -5 -3 -4 -14 2 -26 9 -16 8 -19 -2 -13 -9 6 -11 3 -6 -8 4
-10 1 -17 -6 -17 -8 0 -8 -3 2 -9 8 -5 9 -11 3 -15 -6 -3 -9 -14 -7 -24 2 -9
4 -21 4 -25 1 -5 7 -5 14 -2 6 4 5 1 -3 -7 -20 -18 -22 -81 -2 -73 12 4 12 2
4 -8 -9 -10 -8 -17 1 -27 8 -8 8 -11 1 -7 -7 4 -15 0 -18 -9 -3 -8 -2 -12 4
-9 6 3 11 -6 11 -22 3 -56 6 -88 8 -93 1 -3 5 -16 7 -30 2 -13 9 -27 15 -31 8
-5 8 -9 0 -13 -6 -4 -8 -13 -4 -19 4 -7 8 -15 9 -19 1 -5 3 -10 4 -13 3 -5 3
-6 15 -50 4 -16 12 -35 17 -42 5 -7 7 -17 3 -23 -3 -5 1 -13 10 -16 13 -6 14
-8 3 -15 -10 -7 -10 -9 0 -9 6 0 12 -7 12 -15 0 -8 5 -15 11 -15 5 0 8 -4 4
-9 -3 -5 0 -13 6 -16 5 -4 8 -13 5 -21 -3 -8 -1 -14 5 -14 6 0 8 -7 5 -16 -4
-11 -2 -15 7 -11 8 3 14 -1 15 -9 1 -8 3 -21 4 -29 1 -8 5 -15 10 -15 4 0 8
-7 8 -15 0 -8 5 -15 12 -15 6 0 9 -3 5 -6 -6 -6 2 -19 38 -56 11 -12 13 -17 5
-13 -8 5 -5 -3 8 -17 12 -13 19 -28 15 -33 -5 -4 -2 -5 5 -1 7 4 12 1 12 -9 0
-9 5 -13 10 -10 6 3 10 -3 10 -15 0 -12 5 -18 10 -15 6 3 10 1 10 -5 0 -15 26
-41 34 -33 3 4 6 -1 6 -10 0 -10 5 -17 11 -17 5 0 7 -4 4 -10 -3 -5 -1 -10 5
-10 15 0 40 -25 40 -40 0 -6 3 -9 8 -7 4 3 13 -1 20 -9 7 -8 9 -14 5 -14 -4 0
4 -8 20 -18 15 -10 24 -22 20 -26 -5 -4 -3 -6 2 -4 15 4 56 -27 47 -37 -4 -5
-1 -5 6 -1 7 4 15 1 18 -9 5 -12 9 -13 14 -5 5 9 10 6 15 -9 4 -13 15 -21 27
-21 12 0 18 -3 15 -7 -7 -6 35 -40 42 -34 2 1 8 -4 13 -13 5 -9 13 -14 19 -11
5 4 9 1 9 -4 0 -6 7 -11 15 -11 8 0 15 -4 15 -10 0 -5 7 -10 15 -10 8 0 15 -4
15 -10 0 -5 8 -10 18 -10 10 0 24 -9 32 -19 7 -11 17 -18 22 -15 4 3 8 0 8 -7
0 -7 3 -10 6 -6 4 3 13 -1 21 -9 8 -8 19 -12 24 -9 5 4 9 1 9 -4 0 -6 9 -11
21 -11 13 0 18 -4 13 -12 -5 -7 0 -9 14 -6 13 4 20 1 19 -5 -1 -6 4 -12 11
-13 6 -1 14 -3 17 -4 6 -3 12 -5 43 -15 12 -4 22 -12 22 -17 0 -5 5 -6 10 -3
6 4 22 -1 37 -10 14 -9 22 -12 18 -5 -5 8 -1 8 13 -1 12 -7 19 -16 17 -19 -2
-3 12 -6 32 -7 19 0 38 -5 42 -10 3 -4 28 -14 56 -21 27 -7 53 -19 57 -25 6
-9 8 -9 8 1 0 9 5 10 19 3 10 -6 21 -7 25 -4 3 3 6 1 6 -6 0 -7 5 -9 10 -6 5
3 10 3 10 -2 0 -4 10 -8 23 -9 12 0 38 -5 57 -9 19 -4 45 -9 58 -9 12 -1 22
-5 22 -10 0 -4 8 -5 17 -2 9 4 19 2 22 -3 4 -5 32 -11 64 -12 32 -1 57 -7 57
-13 0 -6 5 -4 10 4 9 13 10 13 10 0 0 -13 1 -13 10 0 5 8 10 10 10 5 0 -6 25
-12 56 -13 31 -1 62 -6 69 -12 8 -6 15 -6 23 2 7 7 12 8 12 2 0 -5 91 -9 229
-9 126 0 228 2 226 5 -2 3 27 6 63 8 36 1 73 8 81 15 12 10 13 9 6 -2 -6 -11
-4 -13 11 -6 10 4 43 9 73 11 29 2 59 8 66 14 7 6 20 8 29 4 9 -3 16 -1 16 6
0 6 4 8 10 5 5 -3 19 -1 30 5 15 8 20 8 20 -2 0 -8 3 -9 8 -3 4 6 18 12 32 14
14 1 28 8 31 13 4 7 9 6 14 -1 5 -9 10 -9 20 -1 12 10 46 21 73 22 6 1 12 5
12 10 0 5 4 6 10 3 5 -3 20 0 32 7 13 6 30 11 40 10 9 -2 19 2 23 8 5 8 11 7
23 -2 13 -11 14 -11 7 1 -6 11 -4 13 8 8 9 -3 18 0 21 9 3 8 9 14 13 13 21 -4
44 2 39 10 -3 4 6 7 19 5 14 -1 25 1 25 5 0 4 23 13 50 20 28 7 48 17 44 22
-3 5 1 6 9 3 8 -3 18 0 22 5 3 6 11 9 16 6 5 -4 9 -1 9 5 0 7 7 10 15 6 8 -3
15 -1 15 4 0 6 9 10 20 10 11 0 20 5 20 10 0 6 9 10 20 10 11 0 20 5 20 12 0
6 3 8 6 5 4 -3 16 -1 28 5 11 7 24 11 29 10 4 -1 7 2 7 6 0 4 16 14 35 21 19
7 35 17 35 22 0 6 5 7 10 4 6 -3 10 -1 10 5 0 6 4 9 9 5 5 -3 16 1 24 9 8 8
26 18 41 22 14 3 24 10 21 14 -6 10 24 22 36 14 5 -3 9 0 9 6 0 6 11 15 25 20
14 5 25 15 25 21 0 7 3 9 7 6 3 -4 15 0 25 10 10 9 18 12 18 8 0 -4 9 2 19 14
11 13 25 20 30 16 6 -3 11 1 11 10 0 9 4 14 9 10 6 -3 15 4 21 15 6 11 15 18
21 15 5 -4 9 -1 9 6 0 7 3 9 7 6 3 -4 17 5 30 19 12 14 23 21 23 17 0 -4 5 0
11 10 6 9 14 15 19 12 4 -3 10 2 14 10 3 8 13 15 21 15 9 0 13 5 10 10 -3 6
-3 10 2 10 4 0 24 14 43 30 19 16 39 30 43 30 5 0 5 5 2 10 -3 6 -2 10 4 10 5
0 25 16 45 35 20 19 38 35 41 35 10 0 43 39 37 44 -3 3 2 6 12 6 9 0 14 5 11
10 -3 6 1 10 10 10 9 0 13 5 10 10 -3 6 -2 10 2 10 15 0 83 67 76 74 -3 3 1 6
10 6 9 0 17 7 17 16 0 8 5 12 10 9 6 -3 10 1 10 9 0 8 12 24 26 35 15 12 23
21 18 21 -5 0 -1 5 9 11 9 5 17 15 17 20 0 6 16 25 36 44 19 18 36 42 37 54 0
11 4 18 7 16 6 -4 74 94 75 108 0 4 7 12 15 17 8 5 11 10 7 10 -5 0 -1 7 7 16
9 8 14 19 11 24 -3 4 2 10 10 14 8 3 15 12 15 19 0 8 7 20 15 27 8 7 13 16 10
20 -2 4 4 16 15 28 14 14 16 22 7 25 -7 3 -5 6 5 6 10 1 15 7 12 14 -2 7 4 22
15 34 11 11 17 24 13 27 -3 4 0 11 7 15 7 5 14 20 14 35 1 14 8 28 14 31 7 2
10 12 6 21 -5 13 -3 15 8 9 12 -7 12 -6 1 7 -10 12 -10 17 -1 20 7 2 13 13 13
24 1 11 5 24 9 31 4 6 8 23 9 37 1 14 6 26 11 26 5 0 7 7 4 15 -4 8 -2 17 4
21 6 4 5 12 -3 22 -8 10 -9 13 -1 9 6 -4 14 -3 18 3 3 5 0 10 -7 10 -9 0 -10
2 -2 8 7 4 10 19 9 34 -2 16 1 31 6 34 6 3 5 11 -2 20 -9 11 -9 14 0 14 9 0 9
5 0 21 -6 12 -7 19 -1 15 5 -3 10 5 10 19 0 16 -5 22 -12 18 -6 -4 -5 0 2 9 9
12 10 18 2 23 -8 5 -8 10 0 20 8 10 8 15 0 20 -8 5 -8 11 -1 19 6 7 8 16 4 20
-8 7 -13 30 -16 61 -1 11 -11 28 -21 38 -10 9 -14 17 -8 17 6 0 9 7 6 15 -4 8
-1 15 6 15 6 0 8 5 5 10 -3 6 -1 10 4 10 6 0 11 -6 11 -12 0 -9 4 -8 10 2 6
10 10 11 10 3 0 -7 9 -13 21 -13 11 0 17 -4 14 -10 -3 -5 3 -10 13 -10 11 0
25 -7 32 -14 6 -8 28 -20 48 -27 20 -7 47 -18 59 -26 17 -11 22 -12 26 -1 3 8
6 6 6 -5 1 -10 6 -15 11 -12 6 3 10 0 10 -7 0 -9 3 -9 10 2 8 13 10 13 10 -2
0 -10 7 -15 17 -14 10 2 23 -3 30 -10 7 -7 22 -11 32 -9 11 2 22 -3 25 -11 3
-7 12 -11 21 -8 8 3 15 2 15 -3 0 -10 8 -12 55 -16 14 -1 25 -6 25 -11 0 -4 7
-6 15 -3 8 4 17 1 21 -4 3 -6 17 -9 30 -6 14 2 27 0 30 -4 8 -14 26 -10 18 4
-4 6 1 5 12 -4 10 -8 35 -15 54 -14 19 0 38 -4 42 -10 5 -6 8 -4 8 5 0 11 2
12 8 2 5 -7 33 -13 70 -14 34 -1 62 -6 62 -10 0 -5 9 -4 19 2 14 7 22 7 27 -1
4 -8 9 -7 15 2 5 8 9 9 9 4 0 -14 41 -17 56 -4 8 7 14 7 19 -1 3 -5 11 -10 16
-10 6 0 8 4 5 8 -6 10 25 9 42 -2 6 -4 12 -3 12 2 0 5 15 9 33 10 45 1 82 8
95 16 7 4 12 2 12 -4 0 -6 5 -8 12 -4 7 4 26 9 43 10 16 1 41 5 55 9 14 3 36
8 50 10 53 7 96 17 111 26 9 4 19 5 23 2 3 -3 6 -2 6 3 0 8 21 14 67 17 7 0
10 4 7 9 -3 4 3 8 12 8 24 0 84 22 84 31 0 5 9 6 20 4 11 -2 20 -1 20 4 0 4
25 15 55 26 30 10 55 22 55 27 0 5 5 6 10 3 6 -3 10 -1 10 5 0 6 5 8 11 5 5
-4 18 0 27 8 9 8 38 25 65 37 26 13 47 28 47 32 0 5 4 7 9 3 6 -3 14 3 20 12
5 10 13 17 18 17 4 -1 7 2 5 8 -1 5 2 7 8 3 6 -3 17 0 25 7 33 29 45 38 54 38
5 0 11 7 15 15 3 8 12 15 20 15 9 0 20 9 26 21 7 11 14 19 16 16 3 -2 24 13
47 34 22 22 45 39 50 39 4 0 5 4 2 10 -3 6 -2 10 3 10 14 0 52 36 45 44 -3 3
1 6 11 6 9 0 15 4 12 9 -3 5 4 11 15 14 12 3 18 10 15 16 -4 5 3 12 14 16 11
4 18 10 15 15 -3 5 4 11 15 15 11 3 21 11 21 16 1 5 2 15 3 22 1 6 9 11 18 11
10 -1 17 1 16 5 -2 22 3 41 11 36 5 -3 12 4 16 15 3 11 11 20 16 20 6 0 7 5 4
10 -3 6 1 10 10 10 9 0 13 5 10 10 -3 6 1 13 9 16 9 3 13 10 10 15 -3 5 1 12
10 15 9 3 12 12 9 21 -4 10 -2 14 4 10 10 -6 23 13 22 30 -1 3 6 10 15 15 9 5
14 13 11 19 -4 5 -2 9 4 9 6 0 7 7 4 17 -4 10 -2 14 5 9 6 -3 14 3 18 16 4 13
14 29 23 36 9 8 10 11 4 7 -9 -4 -11 -1 -7 9 3 9 10 13 15 10 8 -4 10 6 9 31
-1 3 6 13 15 21 8 9 13 20 10 25 -4 5 -1 9 4 9 6 0 11 7 11 15 0 8 5 15 11 15
5 0 8 4 5 9 -8 12 4 42 13 37 4 -3 7 3 8 12 1 9 7 31 14 47 7 17 12 33 11 38
-1 4 3 7 10 7 6 0 9 3 6 6 -4 3 0 17 7 31 7 14 11 32 8 39 -3 8 0 14 7 14 7 0
10 8 7 20 -3 11 -1 20 3 20 5 0 12 17 16 38 4 20 9 42 13 47 3 6 7 19 8 29 2
11 8 24 13 31 5 6 7 20 6 30 -2 11 1 28 5 37 8 15 15 53 18 101 0 10 4 16 9
14 4 -3 7 23 6 56 0 34 4 68 10 76 8 11 8 13 -1 7 -7 -4 -13 -3 -13 3 0 5 5
11 11 13 14 5 16 437 3 447 -5 3 -9 31 -9 61 0 30 -3 57 -7 60 -4 3 -9 30 -12
59 -2 30 -8 57 -13 60 -4 3 -8 17 -7 31 0 14 -5 37 -12 51 -7 15 -10 29 -7 33
4 3 2 6 -3 6 -8 0 -14 22 -17 68 0 6 -4 12 -8 12 -4 0 -6 9 -4 20 2 11 -2 25
-8 32 -7 7 -14 27 -16 43 -1 17 -8 33 -13 36 -6 4 -8 11 -4 17 3 6 1 16 -6 24
-13 14 -20 33 -21 56 0 6 -4 12 -9 12 -4 0 -7 3 -6 8 5 14 -25 91 -33 86 -5
-3 -6 2 -3 10 3 9 2 16 -3 16 -5 0 -10 10 -10 22 -1 13 -10 28 -19 35 -10 7
-13 13 -7 13 8 0 8 7 0 25 -7 14 -16 25 -20 25 -5 0 -6 4 -3 9 3 5 -1 14 -9
21 -8 7 -15 19 -15 26 0 8 -4 14 -10 14 -5 0 -7 7 -4 15 4 8 1 15 -6 15 -6 0
-8 5 -5 10 3 6 1 10 -4 10 -6 0 -11 6 -11 14 0 22 -26 66 -35 58 -5 -4 -6 1
-2 10 3 10 0 19 -10 22 -8 4 -13 13 -9 21 3 9 0 15 -10 15 -8 0 -12 5 -9 10 3
6 0 13 -9 16 -8 3 -12 12 -9 20 3 9 -1 14 -13 14 -9 0 -14 3 -11 6 8 8 -24 64
-35 64 -4 0 -8 7 -8 15 0 8 -4 15 -10 15 -5 0 -10 6 -10 14 0 8 -7 17 -16 20
-9 4 -14 9 -11 12 3 3 -5 18 -19 33 -13 14 -31 33 -39 42 -8 9 -15 21 -15 28
0 6 -10 16 -22 21 -13 5 -17 9 -10 9 14 1 -23 41 -38 41 -5 0 -10 5 -10 10 0
6 -19 29 -42 51 -24 23 -42 45 -40 50 1 5 -3 9 -9 9 -7 0 -26 16 -44 34 -18
19 -35 32 -39 29 -3 -4 -6 2 -6 12 0 10 -3 16 -6 12 -8 -8 -34 18 -34 33 0 6
-5 10 -12 8 -6 -2 -27 11 -45 30 -20 19 -40 31 -48 28 -8 -3 -14 0 -12 6 1 6
-8 17 -20 23 -13 7 -20 15 -16 18 3 4 -4 7 -17 7 -13 0 -20 3 -17 7 10 9 -25
32 -50 33 -12 0 -25 5 -29 12 -5 7 -3 8 6 3 9 -5 11 -4 6 3 -4 7 -14 12 -22
12 -9 0 -12 5 -8 12 5 7 2 9 -8 5 -9 -3 -19 -2 -24 3 -15 14 -84 50 -96 50 -6
0 -17 8 -25 18 -8 9 -12 11 -8 5 4 -8 -6 -6 -27 5 -18 9 -34 20 -36 25 -2 4
-12 7 -23 7 -10 0 -19 5 -19 10 0 6 -6 10 -14 10 -8 0 -12 10 -11 28 3 41 4
44 17 36 8 -5 9 -2 5 10 -4 9 -3 15 2 12 13 -8 34 21 25 35 -4 7 -3 9 4 6 5
-4 18 -4 27 -1 13 5 14 8 3 15 -10 7 -10 9 0 9 19 0 93 81 85 94 -4 6 1 5 10
-3 15 -12 17 -12 11 3 -4 11 -2 16 7 14 8 -2 13 3 11 10 -1 6 2 12 8 12 5 0
10 7 10 15 0 9 6 12 18 8 9 -3 14 -3 10 2 -4 4 -1 13 8 19 8 6 16 21 17 33 0
12 5 19 9 17 10 -7 39 22 31 30 -4 3 1 6 11 6 9 0 14 5 11 10 -3 6 -1 10 5 10
6 0 8 5 4 12 -5 8 -2 9 12 4 10 -4 15 -4 11 0 -4 4 5 21 20 38 18 19 20 25 8
16 -15 -10 -14 -8 3 8 13 12 21 22 18 22 -3 0 7 12 22 28 17 16 27 35 25 47
-3 16 -2 17 6 5 9 -13 11 -13 11 3 0 9 5 17 11 17 5 0 8 4 4 9 -3 5 2 17 11
25 8 9 12 16 7 16 -4 1 3 8 17 16 15 9 18 13 6 9 -16 -4 -17 -3 -7 9 7 8 9 21
5 28 -6 10 -3 9 9 -1 17 -13 23 -6 18 22 0 4 3 7 8 7 5 0 11 10 13 23 2 12 9
21 16 19 8 -1 11 2 7 8 -3 5 -1 10 5 10 6 0 9 4 5 9 -8 13 30 73 40 63 5 -4 5
-1 1 6 -4 7 -2 19 4 27 6 8 9 18 6 24 -3 5 1 12 10 15 8 3 12 10 9 16 -3 5 -1
10 6 10 7 0 9 3 6 7 -4 3 -2 12 4 20 9 10 8 13 -1 13 -8 0 -10 3 -6 8 4 4 13
7 19 7 7 0 11 10 11 23 -1 12 3 22 9 22 6 0 7 3 4 6 -3 4 -1 16 5 28 7 11 11
24 10 29 -1 4 2 7 7 7 5 0 7 10 3 22 -3 14 -1 19 6 14 8 -4 10 4 8 28 -1 19 1
33 6 30 7 -4 12 10 6 19 -1 1 4 11 10 23 8 16 8 24 -1 33 -9 10 -9 11 3 6 11
-4 16 3 17 27 2 30 4 44 15 98 2 8 8 21 12 29 7 11 6 12 -5 6 -11 -7 -12 -6
-3 6 22 28 24 450 2 477 -11 13 -11 14 2 7 12 -7 13 -6 4 6 -5 8 -10 23 -9 34
0 11 -5 32 -13 48 -10 22 -10 27 0 27 8 0 9 3 3 8 -5 4 -12 18 -13 32 -2 14
-7 30 -12 35 -4 6 -6 20 -5 33 1 14 -4 22 -14 23 -11 0 -12 2 -3 6 6 2 9 10 5
16 -8 12 -12 29 -15 60 -1 9 -8 17 -14 17 -7 0 -11 11 -10 24 2 14 -3 27 -11
30 -7 3 -12 9 -11 13 1 4 -3 18 -10 29 -6 12 -9 24 -5 27 3 4 -2 9 -11 13 -9
3 -13 10 -10 15 3 5 0 9 -5 9 -6 0 -11 9 -11 19 0 11 -4 21 -9 23 -5 2 -11 10
-13 18 -2 8 -11 22 -20 31 -10 9 -18 24 -18 32 0 9 -9 21 -20 27 -11 6 -20 18
-20 26 0 8 -3 13 -7 11 -5 -3 -17 7 -28 22 -19 26 -19 26 0 12 11 -8 4 1 -15
19 -19 19 -38 33 -42 32 -5 -1 -8 3 -8 9 0 11 -24 39 -34 39 -3 0 -23 18 -45
40 -22 22 -44 40 -50 40 -6 0 -11 6 -11 14 0 9 -7 12 -19 9 -13 -3 -21 2 -26
16 -3 11 -12 20 -18 18 -7 -1 -11 4 -9 11 1 8 -2 11 -7 8 -10 -7 -71 22 -71
34 0 4 -11 11 -25 14 -14 4 -25 11 -25 16 0 5 -7 6 -17 3 -11 -4 -14 -3 -9 5
5 8 0 12 -13 12 -12 0 -21 5 -21 11 0 5 -4 8 -9 4 -5 -3 -17 2 -26 11 -9 9
-19 14 -22 10 -4 -3 -17 1 -30 9 -13 9 -23 13 -23 9 0 -4 -7 -1 -15 6 -8 7
-15 9 -15 4 0 -5 -5 -2 -10 6 -9 13 -10 13 -10 0 0 -9 -3 -11 -8 -5 -11 16
-50 35 -70 35 -10 0 -23 5 -28 10 -6 6 -34 11 -62 11 -29 1 -52 5 -52 8 0 4
-17 8 -37 9 -21 2 -41 8 -45 15 -6 9 -8 8 -8 -3 0 -10 -3 -11 -8 -4 -8 12
-370 14 -389 1 -6 -4 -14 -3 -17 1 -6 10 -32 8 -58 -3 -10 -4 -25 -5 -33 -2
-8 4 -17 2 -20 -3 -3 -5 -14 -7 -25 -5 -11 2 -20 0 -20 -4 0 -4 -12 -8 -27 -8
-16 -1 -44 -5 -63 -8 -19 -4 -44 -8 -55 -8 -11 -1 -23 -7 -27 -13 -4 -6 -21
-10 -38 -8 -21 3 -29 0 -24 -8 5 -7 0 -9 -15 -5 -12 3 -27 0 -34 -6 -6 -7 -18
-12 -24 -13 -40 -3 -44 -5 -37 -16 5 -9 2 -9 -9 1 -12 9 -17 10 -17 2 0 -7 -4
-10 -9 -6 -5 3 -12 1 -16 -5 -4 -6 -11 -8 -16 -5 -5 4 -9 1 -9 -4 0 -6 -3 -10
-7 -10 -5 1 -10 1 -13 -1 -3 -1 -16 -4 -30 -6 -13 -2 -27 -8 -30 -12 -9 -12
-73 -32 -83 -25 -6 4 -8 0 -4 -11 6 -14 3 -16 -13 -11 -12 4 -20 2 -20 -5 0
-6 -8 -10 -17 -8 -12 2 -17 -2 -15 -12 2 -8 0 -12 -3 -8 -4 4 -20 1 -36 -8
-16 -8 -31 -14 -34 -14 -3 0 -13 -6 -22 -15 -8 -9 -22 -14 -29 -11 -8 3 -14
-1 -14 -8 0 -8 -7 -17 -16 -20 -10 -4 -13 -2 -9 7 4 6 -1 3 -9 -7 -9 -11 -16
-16 -16 -10 0 5 -5 1 -11 -8 -5 -10 -14 -18 -19 -18 -9 0 -32 -17 -70 -50 -9
-8 -23 -16 -31 -18 -8 -2 -17 -10 -22 -17 -4 -8 -15 -11 -24 -8 -9 4 -14 2
-11 -3 3 -5 0 -15 -8 -22 -8 -7 -14 -9 -14 -5 0 4 -15 -9 -33 -29 -19 -21 -42
-38 -51 -38 -9 0 -14 -4 -11 -10 3 -5 -10 -17 -29 -27 -19 -9 -33 -20 -30 -25
3 -4 -6 -8 -20 -8 -14 0 -27 3 -27 8 -1 4 -3 54 -4 112 -2 58 -4 118 -4 133
-1 18 -5 26 -12 21 -8 -4 -8 0 0 15 9 16 9 21 -1 21 -9 0 -9 3 2 10 12 8 12
10 1 10 -9 0 -12 8 -9 25 3 14 1 28 -4 31 -4 3 -6 10 -3 15 4 5 1 9 -6 9 -8 0
-8 4 1 15 7 8 8 15 3 15 -5 0 -9 14 -8 30 1 17 -4 35 -12 41 -10 9 -10 15 -2
25 8 10 8 14 0 14 -6 0 -9 10 -7 23 2 12 -1 31 -7 42 -6 11 -11 29 -12 40 -1
11 -2 35 -3 53 -1 18 -6 31 -10 28 -5 -3 -8 10 -7 29 2 19 -1 33 -5 30 -5 -3
-11 -1 -15 5 -3 5 -1 10 6 10 10 0 10 3 2 11 -6 6 -9 18 -6 25 3 8 1 14 -5 14
-5 0 -9 10 -8 23 0 12 -4 21 -11 20 -7 -2 -10 7 -7 22 2 14 0 25 -5 25 -6 0
-8 7 -5 15 4 8 1 15 -5 15 -6 0 -8 7 -4 16 3 9 0 20 -7 24 -7 4 -13 16 -14 26
-4 36 -18 74 -28 74 -6 0 -8 9 -5 20 3 11 1 20 -5 20 -5 0 -6 5 -3 10 3 6 1
10 -5 10 -6 0 -9 4 -5 9 3 5 -2 16 -10 24 -11 12 -12 17 -2 20 9 4 9 6 0 6 -7
1 -13 10 -13 21 0 11 -5 20 -11 20 -5 0 -7 5 -4 10 3 6 1 10 -5 10 -6 0 -8 5
-5 10 3 6 2 10 -3 10 -6 0 -9 8 -8 18 0 9 -5 16 -12 14 -8 -1 -11 2 -7 7 3 6
-1 23 -9 39 -8 16 -12 32 -9 36 4 3 -2 6 -12 6 -14 0 -15 3 -6 14 10 12 8 16
-10 21 -17 6 -19 9 -8 16 11 7 11 9 1 9 -7 0 -10 5 -7 10 3 6 -1 10 -11 10
-14 0 -15 2 -3 17 12 15 12 16 -4 10 -11 -4 -16 -3 -12 3 4 6 -1 17 -10 26 -9
9 -14 23 -11 31 3 8 1 11 -4 8 -6 -3 -10 1 -10 9 0 9 -4 16 -8 16 -5 0 -19 23
-31 50 -12 28 -27 50 -32 50 -5 0 -8 3 -8 8 3 19 -2 33 -11 27 -5 -3 -10 1
-10 9 0 9 -5 16 -11 16 -5 0 -7 5 -4 10 3 6 1 10 -5 10 -6 0 -8 5 -5 10 3 6 0
10 -7 10 -16 0 -40 49 -31 64 3 6 3 8 -2 4 -11 -10 -46 32 -38 45 3 6 1 7 -5
3 -7 -4 -12 -1 -12 6 0 7 -9 19 -20 26 -11 7 -20 18 -20 26 0 7 -10 21 -22 30
-13 9 -16 14 -8 10 8 -3 0 7 -17 24 -18 16 -33 35 -33 41 0 7 -3 10 -7 8 -5
-3 -14 1 -21 9 -10 11 -10 14 0 15 7 0 3 4 -9 9 -13 5 -23 17 -23 25 0 10 -5
13 -12 9 -8 -5 -9 -2 -4 11 5 15 4 16 -9 5 -9 -7 -15 -9 -14 -4 4 21 -2 34
-16 34 -8 0 -15 6 -15 14 0 7 -11 21 -24 32 -14 10 -23 21 -20 26 3 4 -2 8
-10 8 -9 0 -16 8 -16 17 0 9 -3 13 -7 10 -3 -4 -15 5 -25 20 -10 16 -18 24
-18 19 0 -4 -13 6 -29 23 -15 16 -32 27 -36 23 -5 -4 -5 1 -2 11 4 10 3 16 -2
12 -6 -3 -14 3 -20 12 -6 10 -11 15 -11 10 0 -4 -15 8 -32 26 -18 19 -37 35
-43 36 -5 1 -19 10 -30 19 -11 10 -24 18 -28 19 -4 1 -20 15 -35 31 -26 27
-59 47 -75 44 -4 -1 -6 3 -5 10 2 7 -2 12 -9 13 -7 0 -19 9 -27 20 -9 11 -16
16 -16 12 0 -4 -10 1 -22 13 -12 11 -28 20 -35 20 -7 0 -13 5 -13 11 0 5 -4 7
-10 4 -5 -3 -21 6 -34 20 -17 18 -26 22 -29 13 -4 -9 -6 -7 -6 4 -1 11 -8 15
-25 14 -18 -2 -23 1 -18 12 3 9 1 13 -5 9 -6 -4 -13 0 -17 8 -3 9 -12 12 -22
8 -12 -4 -15 -3 -10 5 4 7 1 12 -7 12 -21 0 -68 26 -60 33 3 4 -4 5 -16 2 -11
-2 -21 0 -21 4 0 9 -38 24 -52 22 -5 -1 -8 4 -8 10 0 5 -4 7 -10 4 -5 -3 -10
-1 -10 5 0 7 -7 10 -15 6 -8 -3 -15 -1 -15 4 0 6 -9 10 -21 10 -13 0 -18 4
-13 13 5 7 0 6 -11 -3 -10 -8 -16 -10 -12 -4 8 13 -19 27 -34 18 -5 -3 -9 0
-9 5 0 6 -8 11 -18 11 -10 0 -23 5 -30 12 -7 7 -12 9 -12 5 0 -4 -19 2 -42 14
-24 12 -44 21 -45 20 -2 0 -4 -1 -5 0 -2 0 -14 2 -27 5 -14 2 -31 10 -40 17
-12 10 -13 9 -6 -3 8 -13 6 -13 -15 0 -14 9 -35 15 -47 14 -12 -1 -20 3 -17 7
4 8 -34 14 -58 10 -5 0 -8 3 -8 8 0 5 -14 8 -30 7 -18 -1 -29 2 -27 8 3 7 -20
12 -60 14 -36 1 -74 7 -85 13 -15 8 -19 8 -13 -1 4 -7 -6 -5 -24 4 -17 9 -31
14 -31 11 0 -3 -9 -1 -20 5 -14 8 -20 8 -20 0 0 -6 -5 -8 -11 -5 -18 12 -71
18 -164 19 -49 0 -93 6 -97 11 -5 6 -8 5 -8 -2 0 -9 -7 -10 -23 -4 -13 5 -30
5 -37 1 -8 -5 -19 -6 -25 -2 -19 12 -47 13 -39 0 5 -7 3 -8 -7 -2 -22 13 -51
16 -43 3 4 -8 1 -8 -13 -1 -11 6 -25 7 -33 2 -8 -5 -21 -5 -31 0 -9 5 -19 6
-23 2z"/>
</g>
</svg>
